<svg width="32" height="32" viewBox="0 0 32 32" fill="none" xmlns="http://www.w3.org/2000/svg">
<path fill-rule="evenodd" clip-rule="evenodd" d="M11.7298 6.11801C11.2898 5.79286 10.667 6.10703 10.667 6.65419L10.667 25.3445C10.667 25.8917 11.2898 26.2059 11.7298 25.8807L16.1153 22.6402C16.7607 18.8693 20.0454 15.9993 24.0003 15.9993C24.2181 15.9993 24.4339 16.0081 24.6474 16.0251C24.6555 15.8151 24.5655 15.6018 24.3774 15.4627L11.7298 6.11801Z" fill="#F5F5F5"/>
<path d="M22.6667 18.667C21.9594 18.667 21.2811 18.9479 20.781 19.448C20.281 19.9481 20 20.6264 20 21.3337V29.3337H22.6667V26.667H25.3333V29.3337H28V21.3337C28 19.867 26.8 18.667 25.3333 18.667M22.6667 21.3337H25.3333V24.0003H22.6667V21.3337Z" fill="white"/>
</svg>
