<svg width="32" height="32" viewBox="0 0 32 32" fill="none" xmlns="http://www.w3.org/2000/svg">
<path fill-rule="evenodd" clip-rule="evenodd" d="M5.33301 7.32216C5.33301 6.775 5.95577 6.46082 6.39584 6.78598L18.1411 15.4641C18.5018 15.7306 18.5018 16.2699 18.1412 16.5364L6.39586 25.2153C5.95579 25.5405 5.33301 25.2263 5.33301 24.6792V7.32216ZM22.8669 7.33403C22.8669 6.96584 23.1653 6.66736 23.5335 6.66736H25.5335C25.9017 6.66736 26.2002 6.96584 26.2002 7.33403V16.3071C25.5011 16.1075 24.7629 16.0007 23.9997 16.0007C23.6151 16.0007 23.2369 16.0278 22.8669 16.0802V7.33403Z" fill="#F5F5F5"/>
<path d="M22.6667 18.667C21.9594 18.667 21.2811 18.9479 20.781 19.448C20.281 19.9481 20 20.6264 20 21.3337V29.3337H22.6667V26.667H25.3333V29.3337H28V21.3337C28 19.867 26.8 18.667 25.3333 18.667M22.6667 21.3337H25.3333V24.0003H22.6667V21.3337Z" fill="white"/>
</svg>
