<svg width="24" height="24" viewBox="0 0 32 32" fill="none" xmlns="http://www.w3.org/2000/svg">
<path d="M11.4165 21.333C11.0023 21.333 10.6665 21.6315 10.6665 21.9997V23.333C10.6665 23.7012 11.0023 23.9997 11.4165 23.9997H21.9165C22.3307 23.9997 22.6665 23.7012 22.6665 23.333V21.9997C22.6665 21.6315 22.3307 21.333 21.9165 21.333H11.4165Z" fill="#F5F5F5"/>
<path d="M24.5494 9.24026C24.9644 8.85019 25.6749 9.07018 25.7621 9.61571L26.6587 15.2279C26.7301 15.6749 26.3211 16.0595 25.8455 15.9924L19.8751 15.1497C19.2947 15.0678 19.0607 14.3999 19.4756 14.0098L20.8708 12.6983C20.9299 12.6427 20.9256 12.5512 20.8609 12.5015C17.4907 9.91317 12.5159 10.0963 9.37286 13.0508C8.99919 13.4021 8.66719 13.7777 8.37686 14.1722C8.23663 14.3628 8.00936 14.4833 7.76287 14.4833H6.02523C5.51097 14.4833 5.16779 13.9888 5.41606 13.5654C5.92416 12.699 6.56898 11.8845 7.35052 11.1498C11.6161 7.14003 18.412 6.95866 22.9065 10.6057C22.9637 10.6521 23.0498 10.65 23.1032 10.5998L24.5494 9.24026Z" fill="#F5F5F5"/>
</svg>
